# xmcd
#
# Track frame offsets:
#	150
#	12462
#	27113
#	36102
#	51702
#	66189
#	78603
#	92953
#	107328
#	119940
#	131141
#	143804
#	154555
#	171555
#	192715
#	206359
#	217217
#	224235
#	229196
#	244531
#	254878
#	265450
#	271667
#	284902
#	296189
#	305727
#	319144
#	333552
#	341830
# Disc length: 4708 seconds
# Revision: 1
# Processed by: cddbd v1.5PL3 Copyright (c) Steve Scherf et al.
#
# Submitted via: libkcddb 0.10
#
DISCID=f512621d
DTITLE=Nat King Cole - Nat King Cole
DYEAR=1900
DGENRE=
TTITLE0=Pretend
TTITLE1=Mona Lisa
TTITLE2=Brazilian Love Song
TTITLE3=The More I See You
TTITLE4=Stardust
TTITLE5=Quizas, Quizas, Quizas
TTITLE6=Unforgettable
TTITLE7=Too Young
TTITLE8=Ramblin' Rose
TTITLE9=Fascination
TTITLE10=Non Dimenticar (Don't Forget)
TTITLE11=Those Lazy-Hazy-Crazy Days Of Summer
TTITLE12=There Foolish Things
TTITLE13=A Nightingale Sang In Berkeley Square
TTITLE14=Adeste Fidelis
TTITLE15=Buon Natale
TTITLE16=Deck The Hall
TTITLE17=Embraceable You
TTITLE18=Frosty The Snowman
TTITLE19=(Get Your Kicks On) Route 66
TTITLE20=I Got The Rhytthm
TTITLE21=Joy To The Lord
TTITLE22=O Holy Night
TTITLE23=Santa Claus Is Coming To Town
TTITLE24=Silent Night
TTITLE25=Tannenbaum
TTITLE26=The Christmas Song
TTITLE27=The Happiest Christmas Tree
TTITLE28=The Little Boy That Santana Claus Forgot
EXTD=
EXTT0=
EXTT1=
EXTT2=
EXTT3=
EXTT4=
EXTT5=
EXTT6=
EXTT7=
EXTT8=
EXTT9=
EXTT10=
EXTT11=
EXTT12=
EXTT13=
EXTT14=
EXTT15=
EXTT16=
EXTT17=
EXTT18=
EXTT19=
EXTT20=
EXTT21=
EXTT22=
EXTT23=
EXTT24=
EXTT25=
EXTT26=
EXTT27=
EXTT28=
PLAYORDER=
